<?xml version="1.0" encoding="utf-8"?>
<!-- Generator: Adobe Illustrator 16.0.0, SVG Export Plug-In . SVG Version: 6.00 Build 0)  -->
<!DOCTYPE svg PUBLIC "-//W3C//DTD SVG 1.1//EN" "http://www.w3.org/Graphics/SVG/1.1/DTD/svg11.dtd">
<svg version="1.1" xmlns="http://www.w3.org/2000/svg" xmlns:xlink="http://www.w3.org/1999/xlink" x="0px" y="0px"
	 width="19.123px" height="21.571px" viewBox="0 0 19.123 21.571" enable-background="new 0 0 19.123 21.571" xml:space="preserve">
<g id="Layer_1">
</g>
<g id="Layer_2">
	<g>
		<g>
			<path fill="#511A19" d="M2.803,21.571c-0.26,0-0.521-0.088-0.736-0.269c-0.484-0.407-0.547-1.13-0.139-1.614
				c0.117-0.141,0.236-0.278,0.355-0.416c0.965-1.118,1.727-2.001,1.727-3.896s-0.762-2.777-1.727-3.895
				C1.213,10.241,0,8.836,0,6.088s1.213-4.153,2.283-5.393l0.254-0.293c0.41-0.481,1.133-0.54,1.613-0.13
				c0.482,0.41,0.541,1.134,0.131,1.615C4.193,1.991,4.105,2.092,4.018,2.194C3.053,3.311,2.291,4.193,2.291,6.088
				s0.762,2.777,1.727,3.895c1.072,1.239,2.285,2.645,2.285,5.393c0,2.749-1.215,4.154-2.285,5.394
				c-0.111,0.131-0.225,0.262-0.336,0.394C3.455,21.432,3.131,21.571,2.803,21.571z"/>
			<path fill="#511A19" d="M9.035,21.571c-0.26,0-0.521-0.088-0.736-0.269c-0.484-0.407-0.547-1.13-0.141-1.614
				c0.119-0.141,0.238-0.278,0.357-0.416c0.965-1.118,1.727-2.001,1.727-3.896s-0.762-2.777-1.727-3.895
				c-1.07-1.24-2.283-2.645-2.283-5.393s1.213-4.153,2.283-5.393l0.252-0.293c0.41-0.481,1.133-0.54,1.615-0.13
				s0.541,1.134,0.131,1.615c-0.088,0.103-0.176,0.204-0.264,0.306C9.285,3.311,8.523,4.193,8.523,6.088s0.762,2.777,1.727,3.895
				c1.07,1.239,2.283,2.645,2.283,5.393c0,2.749-1.213,4.154-2.283,5.394c-0.113,0.131-0.227,0.262-0.338,0.394
				C9.686,21.432,9.361,21.571,9.035,21.571z"/>
			<path fill="#511A19" d="M15.625,21.571c-0.262,0-0.523-0.088-0.738-0.269c-0.484-0.407-0.547-1.13-0.139-1.614
				c0.117-0.141,0.236-0.278,0.355-0.416c0.965-1.118,1.729-2.001,1.729-3.896s-0.764-2.777-1.727-3.895
				c-1.072-1.24-2.285-2.645-2.285-5.393s1.215-4.153,2.285-5.393l0.252-0.293c0.41-0.481,1.133-0.54,1.615-0.13
				c0.48,0.41,0.539,1.134,0.129,1.615c-0.088,0.103-0.174,0.204-0.264,0.306c-0.963,1.117-1.725,1.999-1.725,3.895
				s0.762,2.777,1.725,3.895c1.07,1.239,2.285,2.645,2.285,5.393c0,2.749-1.215,4.154-2.285,5.394
				c-0.111,0.131-0.225,0.262-0.336,0.394C16.275,21.432,15.951,21.571,15.625,21.571z"/>
		</g>
	</g>
</g>
<g id="Layer_3">
</g>
<g id="Layer_4">
</g>
</svg>
