<?xml version="1.0" encoding="utf-8"?>
<!-- Generator: Adobe Illustrator 16.0.0, SVG Export Plug-In . SVG Version: 6.00 Build 0)  -->
<!DOCTYPE svg PUBLIC "-//W3C//DTD SVG 1.1//EN" "http://www.w3.org/Graphics/SVG/1.1/DTD/svg11.dtd">
<svg version="1.1" xmlns="http://www.w3.org/2000/svg" xmlns:xlink="http://www.w3.org/1999/xlink" x="0px" y="0px"
	 width="266.459px" height="9.5px" viewBox="0 0 266.459 9.5" enable-background="new 0 0 266.459 9.5" xml:space="preserve">
<g id="Layer_1">
</g>
<g id="Layer_2">
	<g>
		<path fill="#E9AF53" d="M265.959,5.379H0.5c-0.276,0-0.5-0.224-0.5-0.5s0.224-0.5,0.5-0.5h265.459c0.276,0,0.5,0.224,0.5,0.5
			S266.235,5.379,265.959,5.379z"/>
		<path fill="#E9AF53" d="M265.959,9.5H141.293c-0.128,0-0.252-0.049-0.345-0.138l-3.974-3.78l-3.655,3.766
			c-0.094,0.097-0.224,0.152-0.358,0.152H0.5C0.224,9.5,0,9.276,0,9s0.224-0.5,0.5-0.5h132.249l3.854-3.969
			c0.19-0.197,0.504-0.203,0.703-0.014l4.188,3.983h124.466c0.276,0,0.5,0.224,0.5,0.5S266.235,9.5,265.959,9.5z"/>
		<path fill="#E9AF53" d="M136.961,5.121c-0.131,0-0.261-0.051-0.358-0.152L132.749,1H0.5C0.224,1,0,0.776,0,0.5S0.224,0,0.5,0
			h132.461c0.135,0,0.265,0.055,0.358,0.152l3.655,3.766l3.974-3.78C141.041,0.049,141.165,0,141.293,0h124.666
			c0.276,0,0.5,0.224,0.5,0.5s-0.224,0.5-0.5,0.5H141.493l-4.188,3.983C137.209,5.075,137.085,5.121,136.961,5.121z"/>
	</g>
</g>
<g id="Layer_3">
</g>
<g id="Layer_4">
</g>
</svg>
