<?xml version="1.0" encoding="utf-8"?>
<!-- Generator: Adobe Illustrator 16.0.0, SVG Export Plug-In . SVG Version: 6.00 Build 0)  -->
<!DOCTYPE svg PUBLIC "-//W3C//DTD SVG 1.1//EN" "http://www.w3.org/Graphics/SVG/1.1/DTD/svg11.dtd">
<svg version="1.1" xmlns="http://www.w3.org/2000/svg" xmlns:xlink="http://www.w3.org/1999/xlink" x="0px" y="0px"
	 width="70.383px" height="41.242px" viewBox="0 0 70.383 41.242" enable-background="new 0 0 70.383 41.242" xml:space="preserve">
<g id="Layer_1">
</g>
<g id="Layer_2">
	<g>
		<g>
			<g>
				<path fill="#E9AF53" d="M70.385,37.242c0,2.2-1.8,4-4,4H4.002c-2.2,0-4-1.8-4-4V5.364c0-2.2,1.8-4,4-4h62.383c2.2,0,4,1.8,4,4
					V37.242z"/>
			</g>
			<g>
				<path fill="#F8F7CF" d="M70.385,35.877c0,2.2-1.8,4-4,4H4.002c-2.2,0-4-1.8-4-4V4c0-2.2,1.8-4,4-4h62.383c2.2,0,4,1.8,4,4
					V35.877z"/>
			</g>
		</g>
		<g>
			<path fill="#AF572D" d="M40.707,19.515c0.785-0.696,1.307-1.346,1.289-1.82c0,0-2.984,1.193-3.892-0.705
				c-0.938-1.957-1.931-3.902-2.468-4.953c-0.969-1.903-1.369-3.272-2.789-3.385c-1.169,0.045-2.062,1.531-1.992,3.318l1.092,5.438
				h-5.442c-2.839,0-4.374,1.819-4.197,4.028c0.177,2.207,0.829,2.838,1.406,4.634c0.668,2.078,1.203,4.737,4.042,4.737h5.196
				c1.171,0,2.239-0.407,3.104-1.066h4.18c2.062,0,3.735-1.672,3.735-3.735v-2.802C43.971,21.302,42.545,19.749,40.707,19.515z"/>
			<g>
				<path fill="#AF572D" d="M48.093,28.089c0,1.676-1.504,3.034-3.358,3.034l0,0c-1.855,0-3.36-1.358-3.36-3.034v-9.939
					c0-1.677,1.505-3.035,3.36-3.035l0,0c1.854,0,3.358,1.358,3.358,3.035V28.089z"/>
				<path fill="#F8F7CF" d="M44.734,32.123c-2.404,0-4.36-1.81-4.36-4.034v-9.939c0-2.225,1.956-4.035,4.36-4.035
					c2.403,0,4.358,1.811,4.358,4.035v9.939C49.093,30.313,47.138,32.123,44.734,32.123z M44.734,16.114
					c-1.302,0-2.36,0.913-2.36,2.035v9.939c0,1.122,1.059,2.034,2.36,2.034c1.301,0,2.358-0.912,2.358-2.034v-9.939
					C47.093,17.027,46.035,16.114,44.734,16.114z"/>
			</g>
		</g>
	</g>
</g>
<g id="Layer_3">
</g>
<g id="Layer_4">
</g>
</svg>
