<?xml version="1.0" encoding="utf-8"?>
<!-- Generator: Adobe Illustrator 16.0.0, SVG Export Plug-In . SVG Version: 6.00 Build 0)  -->
<!DOCTYPE svg PUBLIC "-//W3C//DTD SVG 1.1//EN" "http://www.w3.org/Graphics/SVG/1.1/DTD/svg11.dtd">
<svg version="1.1" xmlns="http://www.w3.org/2000/svg" xmlns:xlink="http://www.w3.org/1999/xlink" x="0px" y="0px"
	 width="46.334px" height="9.5px" viewBox="0 0 46.334 9.5" enable-background="new 0 0 46.334 9.5" xml:space="preserve">
<g id="Layer_1">
</g>
<g id="Layer_2">
	<g>
		<path fill="#F8F7CF" d="M45.836,5.38H0.502c-0.276,0-0.5-0.224-0.5-0.5s0.224-0.5,0.5-0.5h45.334c0.276,0,0.5,0.224,0.5,0.5
			S46.112,5.38,45.836,5.38z"/>
		<path fill="#F8F7CF" d="M45.836,9.501h-7.168c-0.128,0-0.252-0.049-0.345-0.138l-3.974-3.78l-3.655,3.766
			c-0.094,0.097-0.224,0.152-0.358,0.152H0.502c-0.276,0-0.5-0.224-0.5-0.5s0.224-0.5,0.5-0.5h29.622l3.854-3.969
			c0.19-0.196,0.505-0.203,0.703-0.014l4.188,3.983h6.968c0.276,0,0.5,0.224,0.5,0.5S46.112,9.501,45.836,9.501z"/>
		<path fill="#F8F7CF" d="M34.336,5.122c-0.131,0-0.261-0.051-0.358-0.152l-3.854-3.969H0.502c-0.276,0-0.5-0.224-0.5-0.5
			s0.224-0.5,0.5-0.5h29.834c0.135,0,0.265,0.055,0.358,0.152l3.655,3.766l3.974-3.78c0.093-0.088,0.217-0.138,0.345-0.138h7.168
			c0.276,0,0.5,0.224,0.5,0.5s-0.224,0.5-0.5,0.5h-6.968l-4.188,3.983C34.584,5.076,34.46,5.122,34.336,5.122z"/>
	</g>
</g>
<g id="Layer_3">
</g>
<g id="Layer_4">
</g>
</svg>
