<?xml version="1.0" encoding="utf-8"?>
<!-- Generator: Adobe Illustrator 16.0.0, SVG Export Plug-In . SVG Version: 6.00 Build 0)  -->
<!DOCTYPE svg PUBLIC "-//W3C//DTD SVG 1.1//EN" "http://www.w3.org/Graphics/SVG/1.1/DTD/svg11.dtd">
<svg version="1.1" xmlns="http://www.w3.org/2000/svg" xmlns:xlink="http://www.w3.org/1999/xlink" x="0px" y="0px"
	 width="36.569px" height="15.029px" viewBox="0 0 36.569 15.029" enable-background="new 0 0 36.569 15.029" xml:space="preserve">
<g id="Layer_1">
</g>
<g id="Layer_2">
	<path fill="#511A19" d="M32.061,0h-2.254c-2.49,0-4.509,2.02-4.509,4.51v1.42H11.271V4.51c0-2.49-2.02-4.51-4.509-4.51H4.508
		C2.019,0,0,2.02,0,4.51v6.012c0,2.489,2.019,4.508,4.508,4.508h2.255c2.489,0,4.509-2.019,4.509-4.508V9.719h14.026v0.803
		c0,2.489,2.019,4.508,4.509,4.508h2.254c2.49,0,4.509-2.019,4.509-4.508V4.51C36.569,2.02,34.551,0,32.061,0z"/>
</g>
<g id="Layer_3">
</g>
<g id="Layer_4">
</g>
</svg>
