<?xml version="1.0" encoding="utf-8"?>
<!-- Generator: Adobe Illustrator 16.0.0, SVG Export Plug-In . SVG Version: 6.00 Build 0)  -->
<!DOCTYPE svg PUBLIC "-//W3C//DTD SVG 1.1//EN" "http://www.w3.org/Graphics/SVG/1.1/DTD/svg11.dtd">
<svg version="1.1" xmlns="http://www.w3.org/2000/svg" xmlns:xlink="http://www.w3.org/1999/xlink" x="0px" y="0px" width="235.5px"
	 height="18.121px" viewBox="0 0 235.5 18.121" enable-background="new 0 0 235.5 18.121" xml:space="preserve">
<g id="Layer_1">
</g>
<g id="Layer_2">
	<g>
		<g>
			<path fill="#E9AF53" d="M69.514,4.399h-5.099v13.497h-4.874V4.399h-5.123V0.15h15.096V4.399z"/>
			<path fill="#E9AF53" d="M73.767,17.896V0.15h8.148c3.475,0,5.974,3.124,5.974,6.148c0,2.049-0.95,3.949-2.55,5.074l3.999,6.523
				H83.84l-3.374-5.449h-1.825v5.449H73.767z M78.641,8.198h3.074c0.601,0,1.225-0.7,1.225-1.899c0-1.225-0.749-1.899-1.35-1.899
				h-2.949V8.198z"/>
			<path fill="#E9AF53" d="M95.767,0.15l3.174,7.673l3.249-7.673h5.299l-6.123,11.872v5.874h-4.849v-5.923L90.493,0.15H95.767z"/>
			<path fill="#E9AF53" d="M131.389,4.399h-5.099v13.497h-4.874V4.399h-5.123V0.15h15.096V4.399z"/>
			<path fill="#E9AF53" d="M151.338,0.15v17.746h-4.873v-6.948h-5.949v6.948h-4.874V0.15h4.874v6.548h5.949V0.15H151.338z"/>
			<path fill="#E9AF53" d="M156.867,17.896V0.15h4.874v17.746H156.867z"/>
			<path fill="#E9AF53" d="M178.015,5.948c0,0-2.575-1.625-4.699-1.625c-0.85,0-1.425,0.25-1.425,0.875
				c0,0.925,1.25,1.125,3.299,1.774c3.274,1.025,5.349,2.174,5.349,5.499c0,4.274-3.448,5.649-6.748,5.649
				c-2.574,0-5.599-0.825-7.723-2.075l2.1-4.274c0,0,2.974,1.95,5.698,1.95c1.05,0,1.425-0.3,1.425-0.775
				c0-1.025-1.825-1.25-3.949-1.975c-3.124-1.05-4.499-2.375-4.499-4.974c0-3.924,3.124-5.999,6.623-5.999
				c2.575,0,5.049,1.125,6.648,1.924L178.015,5.948z"/>
		</g>
		<path fill="none" stroke="#F8F7CF" stroke-width="2" stroke-linecap="round" stroke-linejoin="round" stroke-miterlimit="10" d="
			M198.487,10.649"/>
		<g>
			<path fill="#F8F7CF" d="M235.002,9.649h-45.334c-0.276,0-0.5-0.224-0.5-0.5s0.224-0.5,0.5-0.5h45.334c0.276,0,0.5,0.224,0.5,0.5
				S235.278,9.649,235.002,9.649z"/>
			<path fill="#F8F7CF" d="M235.002,13.771h-7.168c-0.128,0-0.252-0.049-0.345-0.138l-3.974-3.779l-3.655,3.766
				c-0.094,0.097-0.224,0.151-0.358,0.151h-29.834c-0.276,0-0.5-0.224-0.5-0.5s0.224-0.5,0.5-0.5h29.622l3.854-3.969
				c0.19-0.196,0.505-0.203,0.703-0.015l4.188,3.983h6.968c0.276,0,0.5,0.224,0.5,0.5S235.278,13.771,235.002,13.771z"/>
			<path fill="#F8F7CF" d="M223.502,9.392c-0.131,0-0.261-0.051-0.358-0.151l-3.854-3.969h-29.622c-0.276,0-0.5-0.224-0.5-0.5
				s0.224-0.5,0.5-0.5h29.834c0.135,0,0.265,0.055,0.358,0.152l3.655,3.766l3.974-3.78c0.093-0.088,0.217-0.138,0.345-0.138h7.168
				c0.276,0,0.5,0.224,0.5,0.5s-0.224,0.5-0.5,0.5h-6.968l-4.188,3.983C223.75,9.346,223.626,9.392,223.502,9.392z"/>
		</g>
		<g>
			<path fill="#F8F7CF" d="M45.836,9.649H0.502c-0.276,0-0.5-0.224-0.5-0.5s0.224-0.5,0.5-0.5h45.334c0.276,0,0.5,0.224,0.5,0.5
				S46.112,9.649,45.836,9.649z"/>
			<path fill="#F8F7CF" d="M45.836,13.771H16.002c-0.135,0-0.265-0.055-0.358-0.151l-3.655-3.766l-3.974,3.779
				c-0.093,0.089-0.217,0.138-0.345,0.138H0.502c-0.276,0-0.5-0.224-0.5-0.5s0.224-0.5,0.5-0.5H7.47l4.188-3.983
				c0.198-0.189,0.513-0.183,0.703,0.015l3.854,3.969h29.622c0.276,0,0.5,0.224,0.5,0.5S46.112,13.771,45.836,13.771z"/>
			<path fill="#F8F7CF" d="M12.002,9.392c-0.124,0-0.248-0.046-0.345-0.138L7.47,5.271H0.502c-0.276,0-0.5-0.224-0.5-0.5
				s0.224-0.5,0.5-0.5H7.67c0.128,0,0.252,0.049,0.345,0.138l3.974,3.78l3.655-3.766c0.094-0.097,0.224-0.152,0.358-0.152h29.834
				c0.276,0,0.5,0.224,0.5,0.5s-0.224,0.5-0.5,0.5H16.214L12.36,9.24C12.263,9.341,12.133,9.392,12.002,9.392z"/>
		</g>
	</g>
</g>
<g id="Layer_3">
</g>
<g id="Layer_4">
</g>
</svg>
