<?xml version="1.0" encoding="utf-8"?>
<!-- Generator: Adobe Illustrator 16.0.0, SVG Export Plug-In . SVG Version: 6.00 Build 0)  -->
<!DOCTYPE svg PUBLIC "-//W3C//DTD SVG 1.1//EN" "http://www.w3.org/Graphics/SVG/1.1/DTD/svg11.dtd">
<svg version="1.1" xmlns="http://www.w3.org/2000/svg" xmlns:xlink="http://www.w3.org/1999/xlink" x="0px" y="0px"
	 width="150.569px" height="161.958px" viewBox="0 0 150.569 161.958" enable-background="new 0 0 150.569 161.958"
	 xml:space="preserve">
<g id="Layer_1">
</g>
<g id="Layer_2">
	<g>
		<path fill="#511A19" d="M0.002,153.237c0,11.454,32.879,8.333,68.648,8.333c35.769,0,64.766-6.119,64.766-13.667
			s-28.997-13.667-64.766-13.667C32.881,134.236,0.002,134.876,0.002,153.237z"/>
		<path fill="#F8F7CF" d="M115.349,148.461H50.22c-33.81,0-35.223-113.569-35.223-113.569c0-15.234,15.712-27.513,32.59-31.588
			s48.856-5.069,71.396,1.001c17.125,4.612,31.589,15.353,31.589,30.587C150.571,34.892,150.571,148.461,115.349,148.461z"/>
		<path fill="#E9AF53" d="M116.905,121.824H46.369c-10.385,0-13.02-10.653-17.789-24.799c-3.37-9.991,13.887-2.746,30.863-12.041
			c44.75-24.5,81.203-20.641,77.903-4.329C133.014,102.077,131.634,121.824,116.905,121.824z"/>
	</g>
</g>
<g id="Layer_3">
</g>
<g id="Layer_4">
</g>
</svg>
