<?xml version="1.0" encoding="utf-8"?>
<!-- Generator: Adobe Illustrator 16.0.0, SVG Export Plug-In . SVG Version: 6.00 Build 0)  -->
<!DOCTYPE svg PUBLIC "-//W3C//DTD SVG 1.1//EN" "http://www.w3.org/Graphics/SVG/1.1/DTD/svg11.dtd">
<svg version="1.1" xmlns="http://www.w3.org/2000/svg" xmlns:xlink="http://www.w3.org/1999/xlink" x="0px" y="0px"
	 width="70.383px" height="41.242px" viewBox="0 0 70.383 41.242" enable-background="new 0 0 70.383 41.242" xml:space="preserve">
<g id="Layer_1">
</g>
<g id="Layer_2">
	<g>
		<g>
			<g>
				<path fill="#361414" d="M70.385,37.242c0,2.2-1.8,4-4,4H4.002c-2.2,0-4-1.8-4-4V5.365c0-2.2,1.8-4,4-4h62.383c2.2,0,4,1.8,4,4
					V37.242z"/>
			</g>
			<g>
				<path fill="#511A19" d="M70.385,35.878c0,2.2-1.8,4-4,4H4.002c-2.2,0-4-1.8-4-4V4c0-2.2,1.8-4,4-4h62.383c2.2,0,4,1.8,4,4
					V35.878z"/>
			</g>
		</g>
		<g>
			<path fill="#E9AF53" d="M46.673,15.855c-0.668-2.078-1.203-4.736-4.042-4.736h-5.196c-1.171,0-2.237,0.406-3.103,1.065h-4.18
				c-2.064,0-3.736,1.673-3.736,3.735v2.802c0,1.902,1.425,3.454,3.263,3.688c-0.785,0.696-1.307,1.345-1.288,1.819
				c0,0,2.983-1.191,3.893,0.706c0.937,1.957,1.93,3.903,2.466,4.953c0.97,1.903,1.371,3.272,2.79,3.386
				c1.17-0.046,2.062-1.532,1.992-3.318l-1.092-5.438h5.443c2.839,0,4.373-1.819,4.196-4.027
				C47.901,18.282,47.249,17.651,46.673,15.855z"/>
			<g>
				<path fill="#E9AF53" d="M22.294,13.837c0-1.677,1.504-3.035,3.358-3.035l0,0c1.856,0,3.36,1.358,3.36,3.035v9.939
					c0,1.676-1.504,3.034-3.36,3.034l0,0c-1.854,0-3.358-1.358-3.358-3.034V13.837z"/>
				<path fill="#511A19" d="M25.652,27.811c-2.403,0-4.358-1.81-4.358-4.034v-9.939c0-2.225,1.955-4.035,4.358-4.035
					c2.404,0,4.36,1.811,4.36,4.035v9.939C30.013,26.001,28.057,27.811,25.652,27.811z M25.652,11.802
					c-1.301,0-2.358,0.913-2.358,2.035v9.939c0,1.122,1.058,2.034,2.358,2.034c1.302,0,2.36-0.912,2.36-2.034v-9.939
					C28.013,12.715,26.954,11.802,25.652,11.802z"/>
			</g>
		</g>
	</g>
</g>
<g id="Layer_3">
</g>
<g id="Layer_4">
</g>
</svg>
