<?xml version="1.0" encoding="utf-8"?>
<!-- Generator: Adobe Illustrator 16.0.0, SVG Export Plug-In . SVG Version: 6.00 Build 0)  -->
<!DOCTYPE svg PUBLIC "-//W3C//DTD SVG 1.1//EN" "http://www.w3.org/Graphics/SVG/1.1/DTD/svg11.dtd">
<svg version="1.1" xmlns="http://www.w3.org/2000/svg" xmlns:xlink="http://www.w3.org/1999/xlink" x="0px" y="0px" width="19px"
	 height="19px" viewBox="0 0 19 19" enable-background="new 0 0 19 19" xml:space="preserve">
<g id="Layer_1">
</g>
<g id="Layer_2">
	<g>
		<path fill="#F8F7CF" d="M9.502,19c-5.238,0-9.5-4.262-9.5-9.5S4.264,0,9.502,0s9.5,4.262,9.5,9.5S14.74,19,9.502,19z M9.502,1
			c-4.687,0-8.5,3.813-8.5,8.5s3.813,8.5,8.5,8.5s8.5-3.813,8.5-8.5S14.188,1,9.502,1z"/>
		<g>
			<path fill="#F8F7CF" d="M7.837,14.485c1.05-0.075,1.154-0.21,1.154-0.795v-3.12c0-2.505-0.09-2.61-0.854-2.61H7.912l-0.03-0.494
				c1.47-0.136,2.085-0.36,2.25-0.36c0.12,0,0.255,0.06,0.255,0.24c0,0.645-0.075,2.444-0.075,6.524c0,0.42,0.345,0.57,1.005,0.615
				v0.51H7.837V14.485z M9.531,3.94c0.226,0,0.886,0.375,0.886,0.915c0,0.51-0.556,1.065-0.886,1.065c-0.3,0-0.81-0.705-0.81-0.9
				C8.722,4.916,9.037,3.94,9.531,3.94z"/>
		</g>
	</g>
</g>
<g id="Layer_3">
</g>
<g id="Layer_4">
</g>
</svg>
