<?xml version="1.0" encoding="utf-8"?>
<!-- Generator: Adobe Illustrator 15.1.0, SVG Export Plug-In . SVG Version: 6.00 Build 0)  -->
<!DOCTYPE svg PUBLIC "-//W3C//DTD SVG 1.0//EN" "http://www.w3.org/TR/2001/REC-SVG-20010904/DTD/svg10.dtd">
<svg version="1.0" id="Layer_1" xmlns="http://www.w3.org/2000/svg" xmlns:xlink="http://www.w3.org/1999/xlink" x="0px" y="0px"
	 width="264.323px" height="18.249px" viewBox="0 0 264.323 18.249" enable-background="new 0 0 264.323 18.249"
	 xml:space="preserve">
<g>
	<polygon fill="#AE582C" points="48.093,6.925 50.238,10.222 48.84,11.31 46.211,7.205 45.138,11.342 43.677,10.378 46.227,0.519 
		47.689,1.576 46.335,6.692 50.906,0.519 52.322,1.53 	"/>
	<path fill="#AE582C" d="M56.741,10.3c-1.397,0.653-1.99,0.917-3.356,1.042l-1.82-0.964c-0.127-0.42-0.187-0.84-0.187-1.26
		c0-1.96,1.149-3.7,2.427-4.151l1.881,1.196l-0.312,2.24l-2.456,0.545c0,0.372,0.061,0.699,0.17,1.01
		c0.903,0,1.741-0.249,2.676-0.73l0.746-0.388l0.7,1.243L56.741,10.3z M54.161,6.49c-0.528,0.327-1.041,1.012-1.183,1.898
		l1.197-0.638L54.161,6.49z"/>
	<polygon fill="#AE582C" points="60.322,11.342 59.076,10.564 60.025,7.158 57.318,11.342 55.811,10.409 57.242,4.997 58.749,5.93 
		57.66,8.854 60.071,5.2 61.704,6.21 60.772,9.74 62.497,8.839 63.228,10.082 	"/>
	<polygon fill="#AE582C" points="63.261,11.342 61.83,10.409 62.998,5.884 62.172,5.884 62.533,4.64 63.324,4.64 63.76,2.96 
		65.5,2.494 64.925,4.64 65.593,4.64 65.238,5.884 64.598,5.884 63.557,9.787 65.408,8.839 66.123,10.082 	"/>
	<polygon fill="#AE582C" points="69.078,11.342 67.726,10.502 66.232,11.342 64.724,10.409 66.107,5.2 67.601,6.086 66.528,9.647 
		68.269,8.497 69.078,5.2 70.509,6.133 69.529,9.74 71.255,8.839 71.984,10.082 	"/>
	<path fill="#AE582C" d="M73.172,11.342l-1.989-0.964c-0.128-0.467-0.188-0.965-0.188-1.338c0-2.083,1.307-3.716,2.396-4.058
		l1.428,0.902c-1.492,0.731-2.189,1.881-2.189,3.094c0,0.373,0.045,0.762,0.169,1.135l2.505-1.274l0.715,1.243L73.172,11.342z"/>
	<path fill="#AE582C" d="M78.989,11.342l-2.44-2.364l-0.605,2.364l-1.307-0.934l2.596-9.952l1.307,1.182l-1.492,5.457l1.881-1.928
		l1.631,1.104L78.927,9.46l0.328,0.374l1.912-0.995l0.729,1.243L78.989,11.342z M77.029,8.403l0.826,0.265l0.945-1.82L77.029,8.403z
		"/>
	<polygon fill="#AE582C" points="84.838,11.418 83.767,15.508 82.584,14.17 83.549,10.549 82.01,11.342 80.5,10.409 81.886,5.2 
		83.377,6.086 82.273,9.663 83.984,8.76 84.857,5.2 86.287,6.133 85.308,9.74 87.031,8.838 87.763,10.082 	"/>
	<path fill="#AE582C" d="M92.378,11.995l1.215-0.064V2.833l-1.215-0.064V1.81h4.333c2.798,0,5.149,0.319,5.149,2.813
		c0,1.2-1.088,2.143-2.177,2.464c1.743,0.383,2.622,1.454,2.622,2.813c0,1.743-1.711,2.974-3.884,2.974h-6.044V11.995z
		 M98.646,4.911c0-1.838-0.814-2.254-1.488-2.254c-0.174,0-0.399,0.017-0.526,0.049V6.91c0.335,0.017,0.64,0.032,0.942,0.032
		C98.453,6.83,98.646,6.319,98.646,4.911 M99.093,10.028c0-1.439-0.447-2.382-2.223-2.382h-0.239v3.757
		c0,0.561,0.526,0.656,1.231,0.656C98.533,12.059,99.093,11.706,99.093,10.028"/>
	<path fill="#AE582C" d="M104.941,7.326c0-3.821,2.911-5.835,5.979-5.835c3.071,0,5.979,2.014,5.979,5.835
		c0,3.806-2.908,5.836-5.979,5.836C107.852,13.162,104.941,11.131,104.941,7.326 M113.638,7.87c0-2.846-0.671-5.452-2.688-5.452
		c-2.078,0-2.748,1.806-2.748,4.396c0,2.863,0.576,5.486,2.767,5.486C113.111,12.299,113.638,10.364,113.638,7.87"/>
	<path fill="#AE582C" d="M120.542,9.532V2.833l-1.058-0.063V1.81h5.662v0.959l-1.487,0.063v6.3c0,1.855,0.735,2.99,2.973,2.99
		c1.968,0,2.576-1.407,2.576-3.215V2.833l-1.376-0.063V1.81h3.629v0.959l-0.991,0.063l-0.144,6.203
		c-0.048,1.759-0.672,4.126-5.02,4.126C121.5,13.162,120.542,11.531,120.542,9.532"/>
	<path fill="#AE582C" d="M144.678,12.058v0.831l-0.735-0.015c-2.016-0.048-2.511,0.032-3.102-0.673
		c-0.527-0.623-1.423-2.222-2.207-3.708c-0.145,0-0.304,0.015-0.447,0.015v3.422l1.183,0.048v0.896h-5.454v-0.88l1.217-0.064V2.833
		l-1.217-0.065V1.81h4.734c2.798,0,4.925,0.528,4.925,3.213c0,1.296-1.263,2.287-2.398,2.846
		C143.032,10.699,143.734,11.675,144.678,12.058 M138.187,7.613c0.398,0.017,0.815,0.017,1.007,0.017
		c0.431-0.065,1.136-0.56,1.136-2.399c0-1.967-1.056-2.478-1.807-2.478c-0.129,0-0.24,0.015-0.336,0.032V7.613z"/>
	<path fill="#AE582C" d="M146.655,11.995l1.215-0.064V2.833l-1.215-0.064V1.81h4.333c2.798,0,5.148,0.319,5.148,2.813
		c0,1.2-1.089,2.143-2.175,2.464c1.742,0.383,2.622,1.454,2.622,2.813c0,1.743-1.711,2.974-3.885,2.974h-6.044V11.995z
		 M152.921,4.911c0-1.838-0.813-2.254-1.486-2.254c-0.177,0-0.4,0.017-0.527,0.049V6.91c0.336,0.017,0.64,0.032,0.941,0.032
		C152.731,6.83,152.921,6.319,152.921,4.911 M153.37,10.028c0-1.439-0.448-2.382-2.222-2.382h-0.24v3.757
		c0,0.561,0.527,0.656,1.231,0.656C152.81,12.059,153.37,11.706,153.37,10.028"/>
	<path fill="#AE582C" d="M159.217,7.326c0-3.821,2.911-5.835,5.979-5.835c3.072,0,5.979,2.014,5.979,5.835
		c0,3.806-2.907,5.836-5.979,5.836C162.128,13.162,159.217,11.131,159.217,7.326 M167.915,7.87c0-2.846-0.671-5.452-2.687-5.452
		c-2.077,0-2.749,1.806-2.749,4.396c0,2.863,0.576,5.486,2.767,5.486C167.388,12.299,167.915,10.364,167.915,7.87"/>
	<path fill="#AE582C" d="M174.945,3.377c-0.385-0.353-0.736-0.448-1.552-0.608V1.81h4.413l5.5,6.651l-0.031-5.564l-1.2-0.128V1.81
		h3.646v0.959l-1.248,0.128v10.089l-1.167,0.033L176.095,4.4v7.466l1.216,0.129v0.879h-3.552v-0.879l1.137-0.129L174.945,3.377z"/>
	<polygon fill="#AE582C" points="197.707,11.228 196.269,10.372 198.42,0.531 199.547,2.482 197.935,9.695 200.79,8.087 
		201.489,9.222 	"/>
	<path fill="#AE582C" d="M201.297,11.084l-1.439-0.857l1.19-5.351l1.344,0.846l-0.869,3.829l2.489-1.294l0.68,1.142L201.297,11.084z
		 M202.455,4.241l-1.257-1.687L201.44,1.4l1.439,0.873L202.455,4.241z"/>
	<path fill="#AE582C" d="M207.673,10.935l-0.829,2.899l-1.69,1.561l-0.663-2.488l2.152-2.25l0.082-0.613
		c-0.598,0.725-1.565,0.885-1.565,0.885l-1.518-0.945c-0.091-2.251,0.825-4.483,2.179-5.3l1.435,0.781
		c-1.337,0.831-2.013,2.581-1.963,3.812c0.425-0.017,1.62-0.994,2.252-3.108l1.299,0.893l-0.716,2.253l2.17-1.11l0.656,1.117
		L207.673,10.935z"/>
	<polygon fill="#AE582C" points="194.033,10.172 194.392,8.735 195.499,7.956 195.569,3.364 194.33,1.259 192.442,10.963 
		190.557,13.502 191.269,16.12 193.342,14.206 193.856,11.665 197.352,9.896 196.672,8.753 	"/>
	<polygon fill="#AE582C" points="213.928,10.577 212.695,9.865 213.488,6.465 210.992,10.695 209.478,9.841 211.63,0 212.97,1.106 
		211.273,8.231 213.323,4.567 215.068,5.578 214.307,8.993 216.531,7.849 217.242,8.957 	"/>
	<polygon fill="#AE582C" points="217.287,10.442 215.849,9.586 216.814,5.112 216.007,5.146 216.31,3.914 217.085,3.882 
		217.445,2.22 219.13,1.695 218.652,3.819 219.305,3.793 219.005,5.024 218.38,5.049 217.515,8.909 218.95,8.155 219.648,9.264 	"/>
	<path fill="#AE582C" d="M254.732,16.819c-4.453,0-9.743-2.038-14.648-5.723l-0.975-0.733c-4.981-3.747-6.485-4.877-8.583-5.229
		c-2.089-0.352-3.066,0.666-3.279,1.735c-0.166,0.826-0.03,1.629,0.373,2.206c0.305,0.436,0.739,0.708,1.253,0.786
		c2.151,0.321,2.589-1.821,2.632-2.066c0.047-0.272,0.31-0.457,0.577-0.408c0.271,0.047,0.454,0.304,0.409,0.575
		c-0.196,1.165-1.236,3.267-3.766,2.888c-0.782-0.119-1.465-0.545-1.924-1.201c-0.559-0.799-0.754-1.883-0.534-2.975
		c0.313-1.574,1.804-2.968,4.425-2.525c2.338,0.393,3.887,1.557,9.018,5.417l0.974,0.732c5.631,4.23,11.737,6.216,16.337,5.31
		c2.347-0.462,4.171-1.686,5.276-3.539c1.328-2.229,0.855-3.916,0.225-4.938c-0.913-1.48-2.775-2.47-4.445-2.348
		c-0.815,0.059-1.906,0.402-2.474,1.71c-0.824,1.898-0.601,3.333,0.612,3.936c0.836,0.417,1.934,0.265,2.259-0.31
		c0.437-0.776,0.235-1.333-0.098-1.597c-0.27-0.213-0.704-0.278-1.068,0.059c-0.204,0.187-0.519,0.175-0.707-0.027
		c-0.188-0.202-0.176-0.519,0.027-0.707c0.678-0.629,1.651-0.676,2.367-0.11c0.678,0.534,1.049,1.63,0.35,2.872
		c-0.584,1.037-2.254,1.372-3.575,0.715c-1.333-0.663-2.319-2.385-1.083-5.229c0.599-1.379,1.778-2.199,3.32-2.31
		c2.048-0.144,4.253,1.014,5.368,2.821c1.096,1.777,1.019,3.899-0.216,5.974c-1.254,2.104-3.309,3.49-5.942,4.008
		C256.425,16.743,255.594,16.819,254.732,16.819z"/>
	<path fill="#AE582C" d="M9.41,16.819c-0.862,0-1.693-0.076-2.483-0.232c-2.632-0.519-4.687-1.905-5.94-4.008
		C-0.25,10.503-0.327,8.382,0.77,6.604c1.115-1.807,3.322-2.961,5.367-2.82c1.542,0.111,2.721,0.931,3.319,2.31
		c1.235,2.845,0.25,4.567-1.083,5.229c-1.321,0.656-2.991,0.322-3.575-0.715C4.099,9.365,4.47,8.27,5.148,7.735
		c0.715-0.564,1.688-0.518,2.367,0.11C7.718,8.034,7.729,8.35,7.542,8.552C7.354,8.754,7.038,8.766,6.835,8.579
		C6.472,8.242,6.038,8.307,5.768,8.521c-0.333,0.263-0.535,0.82-0.098,1.597c0.324,0.576,1.422,0.727,2.258,0.31
		C9.141,9.825,9.363,8.39,8.539,6.492C7.971,5.184,6.881,4.84,6.066,4.781C4.408,4.667,2.534,5.649,1.621,7.129
		C0.99,8.151,0.518,9.838,1.845,12.067c1.104,1.853,2.928,3.077,5.274,3.539c4.596,0.905,10.706-1.079,16.338-5.309l0.984-0.739
		c5.125-3.854,6.672-5.017,9.008-5.41c2.623-0.441,4.112,0.952,4.426,2.526c0.22,1.09,0.025,2.175-0.535,2.974
		c-0.459,0.656-1.142,1.083-1.922,1.201c-2.531,0.377-3.572-1.723-3.768-2.887c-0.045-0.272,0.137-0.528,0.409-0.575
		c0.278-0.045,0.53,0.137,0.577,0.408c0.043,0.245,0.472,2.392,2.633,2.066c0.514-0.078,0.947-0.35,1.252-0.786
		c0.404-0.576,0.54-1.379,0.374-2.204c-0.213-1.07-1.193-2.088-3.28-1.736c-2.096,0.352-3.597,1.481-8.572,5.223l-0.984,0.74
		C19.153,14.78,13.862,16.819,9.41,16.819z"/>
</g>
</svg>
