<?xml version="1.0" encoding="utf-8"?>
<!-- Generator: Adobe Illustrator 16.0.0, SVG Export Plug-In . SVG Version: 6.00 Build 0)  -->
<!DOCTYPE svg PUBLIC "-//W3C//DTD SVG 1.1//EN" "http://www.w3.org/Graphics/SVG/1.1/DTD/svg11.dtd">
<svg version="1.1" xmlns="http://www.w3.org/2000/svg" xmlns:xlink="http://www.w3.org/1999/xlink" x="0px" y="0px"
	 width="225.045px" height="41.495px" viewBox="0 0 225.045 41.495" enable-background="new 0 0 225.045 41.495"
	 xml:space="preserve">
<g id="Layer_1">
</g>
<g id="Layer_2">
	<g>
		<path fill="#E9AF53" d="M95.233,34.918c-0.853,0-1.771-0.084-2.762-0.266c-6.298-1.157-10.531-4.444-24.559-15.335l-2.7-2.095
			C49.467,5.011,32.228-0.854,19.095,1.521C12.266,2.758,6.911,6.24,3.612,11.59C0.46,16.7,0.158,21.925,2.764,26.301
			c2.688,4.514,8.096,7.471,13.134,7.185c3.572-0.2,6.325-2.046,7.752-5.197c2.568-5.676,1.841-10.231-1.947-12.187
			c-2.759-1.424-6.333-0.891-7.503,1.115c-1.541,2.643-0.741,4.676,0.411,5.614c1.04,0.847,2.728,1.13,4.15-0.146
			c0.205-0.185,0.521-0.169,0.706,0.038c0.185,0.205,0.168,0.521-0.038,0.706c-1.586,1.427-3.829,1.499-5.449,0.178
			c-1.459-1.188-2.503-3.706-0.644-6.894c1.445-2.479,5.571-3.18,8.825-1.5c1.616,0.835,6.568,4.273,2.398,13.487
			c-1.587,3.507-4.644,5.562-8.606,5.783c-5.39,0.305-11.178-2.85-14.049-7.671C-0.9,22.101-0.597,16.508,2.761,11.064
			C6.214,5.467,11.8,1.826,18.916,0.537c13.405-2.437,30.943,3.513,46.91,15.895l2.7,2.096
			c13.879,10.776,18.067,14.028,24.126,15.141c6.467,1.192,9.576-2.165,10.275-5.398c0.549-2.542,0.152-5.047-1.09-6.875
			c-0.974-1.434-2.377-2.339-4.058-2.618c-6.972-1.162-8.409,6.064-8.467,6.373c-0.05,0.272-0.317,0.451-0.582,0.4
			c-0.271-0.05-0.451-0.311-0.401-0.582c0.016-0.086,1.65-8.499,9.614-7.178c1.957,0.325,3.589,1.377,4.721,3.043
			c1.395,2.053,1.847,4.84,1.239,7.647C103.222,31.644,100.549,34.917,95.233,34.918z"/>
		<path fill="#E9B063" d="M102.021,41.495c-0.229,0-0.436-0.157-0.487-0.39c-0.062-0.27,0.107-0.537,0.377-0.598
			c5.342-1.206,5.385-7.157,5.374-7.646c-0.02-0.083-0.019-0.173,0.008-0.26c0.068-0.233,0.29-0.383,0.541-0.356
			c0.158,0.02,0.429,0.119,0.451,0.572c0.102,2.001-0.807,7.459-6.153,8.665C102.095,41.491,102.058,41.495,102.021,41.495z"/>
		<path fill="#E9B063" d="M55.666,34.549c-1.209,0-2.488-0.278-3.782-0.844c-5.132-2.242-8.14-6.764-11.048-11.136
			c-1.39-2.09-2.827-4.251-4.468-6.105C28.045,7.057,18.209,8.72,18.11,8.739c-0.275,0.044-0.532-0.131-0.581-0.402
			c-0.05-0.271,0.129-0.531,0.4-0.581c0.105-0.021,10.477-1.803,19.187,8.046c1.687,1.906,3.144,4.096,4.553,6.214
			c2.828,4.252,5.753,8.648,10.615,10.773c3.043,1.33,5.866,0.926,7.742-1.109c1.917-2.08,2.24-5.273,0.804-7.946
			c-1.44-2.679-3.697-4.123-6.045-3.87c-1.611,0.176-2.9,1.165-3.283,2.52c-0.481,1.701,0.455,3.054,1.492,3.753
			c1.185,0.796,2.609,0.886,3.47,0.217c0.215-0.17,0.53-0.131,0.701,0.088c0.17,0.218,0.131,0.532-0.088,0.701
			c-1.215,0.945-3.081,0.875-4.642-0.177c-1.327-0.894-2.522-2.639-1.896-4.854c0.495-1.75,2.119-3.022,4.137-3.242
			c2.759-0.312,5.394,1.339,7.035,4.392c1.639,3.048,1.257,6.703-0.949,9.097C59.427,33.805,57.643,34.549,55.666,34.549z"/>
		<path fill="#E9AF53" d="M95.233,34.918c-0.853,0-1.771-0.084-2.762-0.266c-6.298-1.157-10.531-4.444-24.559-15.335l-2.7-2.095
			C49.467,5.011,32.228-0.854,19.095,1.521C12.266,2.758,6.911,6.24,3.612,11.59C0.46,16.7,0.158,21.925,2.764,26.301
			c2.688,4.514,8.096,7.471,13.134,7.185c3.572-0.2,6.325-2.046,7.752-5.197c2.568-5.676,1.841-10.231-1.947-12.187
			c-2.759-1.424-6.333-0.891-7.503,1.115c-1.541,2.643-0.741,4.676,0.411,5.614c1.04,0.847,2.728,1.13,4.15-0.146
			c0.205-0.185,0.521-0.169,0.706,0.038c0.185,0.205,0.168,0.521-0.038,0.706c-1.586,1.427-3.829,1.499-5.449,0.178
			c-1.459-1.188-2.503-3.706-0.644-6.894c1.445-2.479,5.571-3.18,8.825-1.5c1.616,0.835,6.568,4.273,2.398,13.487
			c-1.587,3.507-4.644,5.562-8.606,5.783c-5.39,0.305-11.178-2.85-14.049-7.671C-0.9,22.101-0.597,16.508,2.761,11.064
			C6.214,5.467,11.8,1.826,18.916,0.537c13.405-2.437,30.943,3.513,46.91,15.895l2.7,2.096
			c13.879,10.776,18.067,14.028,24.126,15.141c6.467,1.192,9.576-2.165,10.275-5.398c0.549-2.542,0.152-5.047-1.09-6.875
			c-0.974-1.434-2.377-2.339-4.058-2.618c-6.972-1.162-8.409,6.064-8.467,6.373c-0.05,0.272-0.317,0.451-0.582,0.4
			c-0.271-0.05-0.451-0.311-0.401-0.582c0.016-0.086,1.65-8.499,9.614-7.178c1.957,0.325,3.589,1.377,4.721,3.043
			c1.395,2.053,1.847,4.84,1.239,7.647C103.222,31.644,100.549,34.917,95.233,34.918z"/>
		<path fill="#E9B063" d="M102.021,41.495c-0.229,0-0.436-0.157-0.487-0.39c-0.062-0.27,0.107-0.537,0.377-0.598
			c5.342-1.206,5.385-7.157,5.374-7.646c-0.02-0.083-0.019-0.173,0.008-0.26c0.068-0.233,0.29-0.383,0.541-0.356
			c0.158,0.02,0.429,0.119,0.451,0.572c0.102,2.001-0.807,7.459-6.153,8.665C102.095,41.491,102.058,41.495,102.021,41.495z"/>
		<path fill="#E9B063" d="M55.666,34.549c-1.209,0-2.488-0.278-3.782-0.844c-5.132-2.242-8.14-6.764-11.048-11.136
			c-1.39-2.09-2.827-4.251-4.468-6.105C28.045,7.057,18.209,8.72,18.11,8.739c-0.275,0.044-0.532-0.131-0.581-0.402
			c-0.05-0.271,0.129-0.531,0.4-0.581c0.105-0.021,10.477-1.803,19.187,8.046c1.687,1.906,3.144,4.096,4.553,6.214
			c2.828,4.252,5.753,8.648,10.615,10.773c3.043,1.33,5.866,0.926,7.742-1.109c1.917-2.08,2.24-5.273,0.804-7.946
			c-1.44-2.679-3.697-4.123-6.045-3.87c-1.611,0.176-2.9,1.165-3.283,2.52c-0.481,1.701,0.455,3.054,1.492,3.753
			c1.185,0.796,2.609,0.886,3.47,0.217c0.215-0.17,0.53-0.131,0.701,0.088c0.17,0.218,0.131,0.532-0.088,0.701
			c-1.215,0.945-3.081,0.875-4.642-0.177c-1.327-0.894-2.522-2.639-1.896-4.854c0.495-1.75,2.119-3.022,4.137-3.242
			c2.759-0.312,5.394,1.339,7.035,4.392c1.639,3.048,1.257,6.703-0.949,9.097C59.427,33.805,57.643,34.549,55.666,34.549z"/>
		<path fill="#E9AF53" d="M129.814,34.918c-5.315,0-7.988-3.273-8.671-6.438c-0.607-2.808-0.155-5.595,1.239-7.647
			c1.132-1.666,2.764-2.718,4.721-3.043c7.956-1.316,9.599,7.093,9.614,7.178c0.05,0.271-0.13,0.532-0.401,0.582
			c-0.271,0.051-0.533-0.128-0.582-0.4c-0.058-0.308-1.481-7.529-8.467-6.373c-1.681,0.279-3.084,1.185-4.058,2.618
			c-1.242,1.828-1.639,4.333-1.09,6.875c0.699,3.233,3.814,6.589,10.274,5.398c6.06-1.112,10.248-4.364,24.127-15.141l2.7-2.096
			c15.967-12.382,33.497-18.328,46.91-15.895c7.116,1.289,12.702,4.93,16.155,10.527c3.357,5.443,3.661,11.036,0.856,15.748
			c-2.871,4.819-8.656,7.974-14.049,7.671c-3.963-0.222-7.02-2.276-8.606-5.783c-4.17-9.214,0.782-12.652,2.398-13.487
			c3.255-1.68,7.38-0.979,8.825,1.5c1.859,3.188,0.815,5.706-0.644,6.894c-1.62,1.319-3.863,1.249-5.449-0.178
			c-0.206-0.185-0.223-0.501-0.038-0.706c0.186-0.206,0.501-0.222,0.706-0.038c1.423,1.277,3.109,0.994,4.15,0.146
			c1.152-0.938,1.952-2.972,0.411-5.614c-1.17-2.006-4.746-2.536-7.503-1.115c-3.788,1.955-4.516,6.511-1.947,12.187
			c1.427,3.151,4.18,4.997,7.752,5.197c5.054,0.288,10.445-2.671,13.134-7.185c2.605-4.376,2.304-9.601-0.849-14.711
			c-3.299-5.35-8.653-8.832-15.482-10.069c-13.13-2.375-30.372,3.49-46.118,15.702l-2.7,2.095
			c-14.027,10.891-18.261,14.178-24.56,15.335C131.586,34.834,130.666,34.918,129.814,34.918z"/>
		<path fill="#E9B063" d="M123.026,41.495c-0.036,0-0.073-0.004-0.11-0.013c-5.347-1.206-6.255-6.664-6.153-8.665
			c0.022-0.453,0.293-0.553,0.451-0.572c0.256-0.022,0.472,0.124,0.541,0.356c0.026,0.087,0.027,0.177,0.008,0.26
			c-0.011,0.489,0.032,6.44,5.374,7.646c0.27,0.061,0.438,0.328,0.377,0.598C123.462,41.338,123.256,41.495,123.026,41.495z"/>
		<path fill="#E9B063" d="M169.382,34.549c-1.977,0-3.761-0.744-5.096-2.191c-2.206-2.394-2.588-6.049-0.949-9.097
			c1.641-3.052,4.253-4.702,7.035-4.392c2.018,0.22,3.642,1.492,4.137,3.242c0.626,2.215-0.569,3.96-1.896,4.854
			c-1.562,1.052-3.427,1.122-4.642,0.177c-0.219-0.169-0.258-0.483-0.088-0.701c0.17-0.219,0.484-0.258,0.701-0.088
			c0.862,0.671,2.287,0.58,3.47-0.217c1.037-0.699,1.974-2.052,1.492-3.753c-0.383-1.354-1.672-2.344-3.283-2.52
			c-2.334-0.254-4.604,1.191-6.045,3.87c-1.437,2.673-1.113,5.866,0.804,7.946c1.876,2.034,4.699,2.438,7.742,1.109
			c4.862-2.125,7.787-6.521,10.615-10.773c1.409-2.118,2.866-4.308,4.553-6.214c8.709-9.847,19.081-8.067,19.187-8.046
			c0.271,0.05,0.45,0.31,0.4,0.581s-0.31,0.446-0.581,0.402c-0.1-0.019-9.934-1.684-18.258,7.725
			c-1.641,1.854-3.078,4.016-4.468,6.105c-2.908,4.372-5.916,8.894-11.048,11.136C171.871,34.271,170.59,34.549,169.382,34.549z"/>
		<path fill="#E9AF53" d="M129.814,34.918c-5.315,0-7.988-3.273-8.671-6.438c-0.607-2.808-0.155-5.595,1.239-7.647
			c1.132-1.666,2.764-2.718,4.721-3.043c7.956-1.316,9.599,7.093,9.614,7.178c0.05,0.271-0.13,0.532-0.401,0.582
			c-0.271,0.051-0.533-0.128-0.582-0.4c-0.058-0.308-1.481-7.529-8.467-6.373c-1.681,0.279-3.084,1.185-4.058,2.618
			c-1.242,1.828-1.639,4.333-1.09,6.875c0.699,3.233,3.814,6.589,10.274,5.398c6.06-1.112,10.248-4.364,24.127-15.141l2.7-2.096
			c15.967-12.382,33.497-18.328,46.91-15.895c7.116,1.289,12.702,4.93,16.155,10.527c3.357,5.443,3.661,11.036,0.856,15.748
			c-2.871,4.819-8.656,7.974-14.049,7.671c-3.963-0.222-7.02-2.276-8.606-5.783c-4.17-9.214,0.782-12.652,2.398-13.487
			c3.255-1.68,7.38-0.979,8.825,1.5c1.859,3.188,0.815,5.706-0.644,6.894c-1.62,1.319-3.863,1.249-5.449-0.178
			c-0.206-0.185-0.223-0.501-0.038-0.706c0.186-0.206,0.501-0.222,0.706-0.038c1.423,1.277,3.109,0.994,4.15,0.146
			c1.152-0.938,1.952-2.972,0.411-5.614c-1.17-2.006-4.746-2.536-7.503-1.115c-3.788,1.955-4.516,6.511-1.947,12.187
			c1.427,3.151,4.18,4.997,7.752,5.197c5.054,0.288,10.445-2.671,13.134-7.185c2.605-4.376,2.304-9.601-0.849-14.711
			c-3.299-5.35-8.653-8.832-15.482-10.069c-13.13-2.375-30.372,3.49-46.118,15.702l-2.7,2.095
			c-14.027,10.891-18.261,14.178-24.56,15.335C131.586,34.834,130.666,34.918,129.814,34.918z"/>
		<path fill="#E9B063" d="M123.026,41.495c-0.036,0-0.073-0.004-0.11-0.013c-5.347-1.206-6.255-6.664-6.153-8.665
			c0.022-0.453,0.293-0.553,0.451-0.572c0.256-0.022,0.472,0.124,0.541,0.356c0.026,0.087,0.027,0.177,0.008,0.26
			c-0.011,0.489,0.032,6.44,5.374,7.646c0.27,0.061,0.438,0.328,0.377,0.598C123.462,41.338,123.256,41.495,123.026,41.495z"/>
		<path fill="#E9B063" d="M169.382,34.549c-1.977,0-3.761-0.744-5.096-2.191c-2.206-2.394-2.588-6.049-0.949-9.097
			c1.641-3.052,4.253-4.702,7.035-4.392c2.018,0.22,3.642,1.492,4.137,3.242c0.626,2.215-0.569,3.96-1.896,4.854
			c-1.562,1.052-3.427,1.122-4.642,0.177c-0.219-0.169-0.258-0.483-0.088-0.701c0.17-0.219,0.484-0.258,0.701-0.088
			c0.862,0.671,2.287,0.58,3.47-0.217c1.037-0.699,1.974-2.052,1.492-3.753c-0.383-1.354-1.672-2.344-3.283-2.52
			c-2.334-0.254-4.604,1.191-6.045,3.87c-1.437,2.673-1.113,5.866,0.804,7.946c1.876,2.034,4.699,2.438,7.742,1.109
			c4.862-2.125,7.787-6.521,10.615-10.773c1.409-2.118,2.866-4.308,4.553-6.214c8.709-9.847,19.081-8.067,19.187-8.046
			c0.271,0.05,0.45,0.31,0.4,0.581s-0.31,0.446-0.581,0.402c-0.1-0.019-9.934-1.684-18.258,7.725
			c-1.641,1.854-3.078,4.016-4.468,6.105c-2.908,4.372-5.916,8.894-11.048,11.136C171.871,34.271,170.59,34.549,169.382,34.549z"/>
	</g>
</g>
<g id="Layer_3">
</g>
<g id="Layer_4">
</g>
</svg>
